/* XPM */
static char *_7e7a496e29f4307b645821f24287581SLDRG2WMxhTIBeEV[] = {
/* columns rows colors chars-per-pixel */
"32 32 199 2 ",
"   c #2A161B",
".  c #3E1C1C",
"X  c #181425",
"o  c #251820",
"O  c #2A1E25",
"+  c #2E1F2C",
"@  c #2F2229",
"#  c #3B2426",
"$  c #35262E",
"%  c #3E2529",
"&  c #392A2B",
"*  c #772C1E",
"=  c #442A2C",
"-  c #4D2F2A",
";  c #463029",
":  c #4C3429",
">  c #5A3125",
",  c #573B2A",
"<  c #523A2D",
"1  c #5C392D",
"2  c #4D2D33",
"3  c #403330",
"4  c #5C3C30",
"5  c #583739",
"6  c #6F2F21",
"7  c #772F20",
"8  c #673125",
"9  c #6F3424",
"0  c #75382A",
"q  c #623E32",
"w  c #5C4234",
"e  c #5E473A",
"r  c #68472D",
"t  c #614234",
"y  c #6C4335",
"u  c #66483A",
"i  c #6B4E3B",
"p  c #704637",
"a  c #724639",
"s  c #75483A",
"d  c #6D5036",
"f  c #71563E",
"g  c #7C5C38",
"h  c #654E41",
"j  c #734741",
"k  c #635248",
"l  c #745B42",
"z  c #785E49",
"x  c #765753",
"c  c #7B6145",
"v  c #9E361F",
"b  c #883722",
"n  c #AA3E23",
"m  c #964429",
"M  c #994329",
"N  c #AA4929",
"B  c #BC4526",
"V  c #B8562D",
"C  c #B85130",
"Z  c #B75A39",
"A  c #8F643A",
"S  c #9B773D",
"D  c #AB643F",
"F  c #BD6032",
"G  c #C74427",
"H  c #C84427",
"J  c #C44628",
"K  c #C94628",
"L  c #CB4C2A",
"P  c #D04F2A",
"I  c #CB582D",
"U  c #D8572D",
"Y  c #CD6231",
"T  c #C3663B",
"R  c #DB6A37",
"E  c #DE7538",
"W  c #E76E36",
"Q  c #F17638",
"!  c #92594B",
"~  c #905C50",
"^  c #A95E45",
"/  c #8E6747",
"(  c #85694D",
")  c #916847",
"_  c #966C4A",
"`  c #8F7052",
"'  c #9C7C5A",
"]  c #AB7D42",
"[  c #B56B54",
"{  c #A37A57",
"}  c #A07D5C",
"|  c #8E7365",
" . c #9D7867",
".. c #A67061",
"X. c #A87E73",
"o. c #CB6741",
"O. c #DA7A42",
"+. c #CD6E5D",
"@. c #C37652",
"#. c #EE7E41",
"$. c #BE8C4C",
"%. c #BA8F52",
"&. c #BD925B",
"*. c #9F8474",
"=. c #AC8769",
"-. c #AC8D6B",
";. c #B88A65",
":. c #BB9266",
">. c #A6877B",
",. c #B68574",
"<. c #B89874",
"1. c #E38344",
"2. c #F38242",
"3. c #F68947",
"4. c #EA8A53",
"5. c #E28058",
"6. c #F78E55",
"7. c #F69A55",
"8. c #C7A05A",
"9. c #D6856F",
"0. c #D68C68",
"q. c #C29C64",
"w. c #C69979",
"e. c #D1997F",
"r. c #EC9368",
"t. c #F39C62",
"y. c #E99973",
"u. c #DDB060",
"i. c #C5A37C",
"p. c #CCA87A",
"a. c #D7A574",
"s. c #DCB57D",
"d. c #F3A066",
"f. c #F3AA6B",
"g. c #E9B96C",
"h. c #F8B06F",
"j. c #E5A173",
"k. c #F3A672",
"l. c #EBB778",
"z. c #F7B67B",
"x. c #FAB57C",
"c. c #FFB97F",
"v. c #F3C075",
"b. c #FFCD7D",
"n. c #B18F83",
"m. c #AA9385",
"M. c #B49B8D",
"N. c #BFA698",
"B. c #AFA7AD",
"V. c #C29E8F",
"C. c #D49A89",
"Z. c #F79C91",
"A. c #C8AA8B",
"S. c #DBA889",
"D. c #D7B588",
"F. c #C9A896",
"G. c #EAAB88",
"H. c #F4A58A",
"J. c #ECB784",
"K. c #E7B78B",
"L. c #F5B282",
"P. c #FDBE82",
"I. c #F3B38B",
"U. c #FAB68B",
"Y. c #EEAE95",
"T. c #EAAE9C",
"R. c #EFB79E",
"E. c #F2B491",
"W. c #FFBF90",
"Q. c #FDB49A",
"!. c #CBB2A7",
"~. c #C4B7B7",
"^. c #E8BFA4",
"/. c #F3B9A6",
"(. c #FFBAA5",
"). c #FEBEB2",
"_. c #EFC48C",
"`. c #FECF80",
"'. c #F9CB8C",
"]. c #FDD184",
"[. c #FED28B",
"{. c #EAC693",
"}. c #F5C394",
"|. c #F1CB96",
" X c #FFC59E",
".X c #FECC9A",
"XX c #FFD494",
"oX c #FFD59E",
"OX c #FCC7A9",
"+X c #EFC0B0",
"@X c #E5C4BB",
"#X c #FEC8B9",
"$X c #FED4BA",
"%X c #DFCACB",
"&X c #E3CCC3",
"*X c #E5D3CE",
"=X c #FFD3C3",
"-X c #F8DBCA",
";X c #FEDDCB",
/* pixels */
"2 2 2 + 2 s s s s + _ _ 2 s s s 2 2 2 + 2 s s s s + s s 2 s s s ",
"2 _ _ 2 + 2 2 s 2 _ s s _ 2 s s 2 s s 2 + 2 2 s 2 s s s s 2 s s ",
"_ s s _ + _ _ 2 + s s s s + 2 2 s s s s + s s 2 + s s s s + 2 2 ",
"s s s s + s s _ + 2 s s 2 + O = y p s s + s s s + 2 s s 2 + + 2 ",
"2 s s 2 + 2 s s + + = # O f l w u w , % O 2 s s X + 2 2 + s s + ",
"+ 2 2 + + + 2 2 + + ; i ' <.p.p.i.-.` i = + 2 2 X + + X s s s s ",
"+ + 2 _ _ 2 + + ) g A &.s.|.oXoXoX{.s.&.A - + + s s 2 + s s s s ",
"+ 2 _ s s _ + _ p r $.g.].XXoXoXoXXX[.g.] r + s s s s 2 s s s s ",
"+ 2 s s 2 2 + s p r %.g.b.[.oX.X.XXX].u.S , + s s s s 2 2 s s 2 ",
"+ + 2 2 _ _ 2 s p : q.v.b.[.oX.X.XXX`.8.g 1 2 s s 2 2 + X 2 2 + ",
"_ 2 + _ s s _ 2 2 d :._.XX'..X$X$X}.'.p.( q s 2 2 s s s + X + s ",
"s _ + s s s s + / w w.|.{.A.F.;X@Xm.A.D.=.t s + s s s s s + s s ",
"s s + 2 s s s 2 y < i.}.^.!.~.;X&XB.!.K.=.< p 2 s s s s s 2 s s ",
"2 _ _ + 2 2 2 + 2 : <.E./.@X*X;X-X%X+XK.} # 2 + 2 s s s 2 + + 2 ",
"_ s s _ + + _ _ 2 @ <.I.Q.#X;X=X;X=X(.G. .O s s 2 + 2 2 + s s + ",
"2 s s 2 2 _ s s / 3 i.L.W.OX=X).#X$X XJ.-.t s s s X + + s s s s ",
"2 2 2 + 2 s s s a k {.P.c.W.Q.Z.H.U.c.P.a.z y p s + s s 2 s s s ",
"2 _ _ 2 + 2 2 s 2 c K.x.U.OXY.+.+.Y.I.x.l.} = p 2 s s s s 2 s s ",
"_ s s _ + _ _ 2 $ l J.x.k.E./.9.9.R.L.h.l.;., 2 + s s s s + 2 2 ",
"s s s s + s s _ $ e a.z.f.k.H.r.r.L.f.f.a.{ 4 p + 2 s s 2 + + 2 ",
"2 s s 2 + 2 s s @ & { S.L.t.4.#.2.7.d.j.;.i y p X + 2 2 + s s + ",
"+ 2 2 + + + 2 2 + O h V.T.y.O.R E 1.y.C.| # 2 2 X + + X s s s s ",
"+ + 2 _ _ 2 + + _ ) k N.S.@.Z C C T 0.F.>.% X + s s 2 + s s s s ",
"+ 2 _ s s _ + _ p q *.M.;.F L J J Y D =.n.u + s s s s 2 s s s s ",
"+ 2 s s 2 2 + s p 4 >.X.^ B K G G L m !  .5 + s s s s 2 2 s s 2 ",
"+ + 2 2 _ _ 2 s p = x j M B G H G H v 0 j y 2 s s 2 2 + + 2 2 + ",
"_ 2 + _ s s _ 2 2 / f > b K H H H K n 6 - y s 2 2 s s s + X + s ",
"s _ + s s s s + _ s p > m I P H K U N 0 1 s s + s s s s s + s s ",
"s s 2 s s s s 2 s s p > M W W L R Q V 8 1 s 2 2 s s s s s + s s ",
"s 2 + 2 s s 2 + 2 s 1 9 V 2.4.[ 0.3.Y 9 # 2 2 + 2 s s s 2 + 2 s ",
"2 + + + 2 2 s s + 2 # 7 I 6.y...e.t.R b   O + X + 2 2 2 + X + 2 ",
"+ 2 2 + + O s s 2 + o * o.y.w.~ ,.G.5.m . X 2 2 2 + + X 2 2 + + "
};
