/* XPM */
static char *_61e9ad4ca574fe19d4725b63ee35af0qFQp0fOCOhoPwqtt[] = {
/* columns rows colors chars-per-pixel */
"32 32 7 1 ",
"  c #4D2D33",
". c #2E1F2C",
"X c #75483A",
"o c #966C4A",
"O c #181425",
"+ c #2B1D2B",
"@ c white",
/* pixels */
"   . XXXX.oo XXX   . XXXX.XX XXX",
" oo .  X oXXo XX XX .  X XXXX XX",
"oXXo.oo .XXXX.  XXXX.XX .XXXX.  ",
"XXXX.XXo. XX .. XXXX.XXX. XX .. ",
" XX . XX..  .oo. XX . XXO.  .XX.",
".  ...  ....oXXo.  ...  O..OXXXX",
".. oo ..oo .XXXX.O.XX ..XX .XXXX",
". oXXo.oXXo XXXX..XXXX.XXXX XXXX",
". XX  .XXXX  XX .OXX  .XXXX  XX ",
"..  oo XX  ..  ..O. XX XX  .O  .",
"o .oXXo  ooo...oX .XXXX  XXX.O.X",
"Xo.XXXX.oXXXo.oXXX.XXXX.XXXXX.XX",
"XX. XXX XXXXX XXXX. XXX XXXXX XX",
" oo.   . XXX ..  XX.   . XXX .. ",
"oXXo..oo .  .oo.XXXX..XX .  .XX.",
" XX  oXXo...oXXo XX  XXXXO..XXXX",
"   . XXXX.oo XXX   . XXXX.XX XXX",
" oo .  X oXXo XX XX .  X XXXX XX",
"oXXo.oo .XXXX.  XXXX.XX .XXXX.  ",
"XXXX.XXo. XX .. XXXX.XXX. XX .. ",
" XX . XX..  .oo. XX . XXO.  .XX.",
".  ...  ....oXXo.  ...  O..OXXXX",
".. oo ..oo .XXXXO. XX O.XX .XXXX",
". oXXo.oXXo XXXX. XXXX.XXXX XXXX",
". XX  .XXXX  XX . XX  .XXXX  XX ",
"..  oo XX  ..  ...  XX XX  ..  .",
"o .oXXo  ooo...oX .XXXX  XXX.O.X",
"Xo.XXXX.oXXXo.oXXX.XXXX.XXXXX.XX",
"XX XXXX XXXXX.XXXX. XX  XXXXX.XX",
"X . XX . XXX .  X O.   . XXX . X",
" ...  XX.   ...  .OOO+.O.   .O. ",
".  ..+XX ...  ....  .O   ..O  .."
};
