/* XPM */
static char *_531ae5512ae4728fd5f70ee9f249d27Eu4yTst9BuveWZ47[] = {
/* columns rows colors chars-per-pixel */
"32 32 138 2 ",
"   c #07060A",
".  c #0D090C",
"X  c #150B0D",
"o  c #190B0B",
"O  c #140D13",
"+  c #1C0E13",
"@  c #171016",
"#  c #1F1011",
"$  c #13101E",
"%  c #1E131B",
"&  c #200F12",
"*  c #241216",
"=  c #2A1414",
"-  c #2F1D17",
";  c #24161C",
":  c #2F1718",
">  c #2D191D",
",  c #311816",
"<  c #32161D",
"1  c #341B1B",
"2  c #3B1C1E",
"3  c #3A231D",
"4  c #3D291F",
"5  c #161221",
"6  c #181425",
"7  c #231721",
"8  c #251923",
"9  c #281B26",
"0  c #2E1F2C",
"q  c #341C21",
"w  c #3D1C22",
"e  c #3D2324",
"r  c #3E2429",
"t  c #411F1F",
"y  c #40261F",
"u  c #431E25",
"i  c #452422",
"p  c #4D2423",
"a  c #472F24",
"s  c #492C24",
"d  c #41272B",
"f  c #47292F",
"g  c #562727",
"h  c #5B272F",
"j  c #5B2A2B",
"k  c #4C3226",
"l  c #55342A",
"z  c #59362C",
"x  c #5E3A2F",
"c  c #4D2D33",
"v  c #562431",
"b  c #652C2E",
"n  c #692E2D",
"m  c #6B302F",
"M  c #632A36",
"N  c #652A39",
"B  c #6D2F3B",
"V  c #6A3131",
"C  c #643E32",
"Z  c #6F313C",
"A  c #713433",
"S  c #7C3939",
"D  c #654631",
"F  c #6C4336",
"G  c #654932",
"H  c #6A4D35",
"J  c #704537",
"K  c #724639",
"L  c #75483A",
"P  c #813B3B",
"I  c #8C403F",
"U  c #943F4F",
"Y  c #8D4140",
"T  c #954444",
"R  c #9D4443",
"E  c #95414C",
"W  c #9B444C",
"Q  c #835E40",
"!  c #954650",
"~  c #9B4352",
"^  c #A34847",
"/  c #A44B4A",
"(  c #AB4D4C",
")  c #B44F4E",
"_  c #B4504F",
"`  c #A54C56",
"'  c #AC4E51",
"]  c #B14E52",
"[  c #B55152",
"{  c #BD5352",
"}  c #B25659",
"|  c #B45A5E",
" . c #8E6646",
".. c #966C4A",
"X. c #BA605F",
"o. c #B46061",
"O. c #BB6C6B",
"+. c #BB747A",
"@. c #D94F4D",
"#. c #D4514F",
"$. c #D9504F",
"%. c #C45453",
"&. c #CB5251",
"*. c #C35258",
"=. c #C55D5C",
"-. c #D25352",
";. c #DA5452",
":. c #DB5857",
">. c #D65C5B",
",. c #DB5B5B",
"<. c #C46263",
"1. c #C96869",
"2. c #DB6464",
"3. c #D96A6B",
"4. c #CD6F71",
"5. c #D26D71",
"6. c #CD7071",
"7. c #DB7374",
"8. c #E06D6E",
"9. c #E27372",
"0. c #E47B7A",
"q. c #DF8282",
"w. c #DE8989",
"e. c #DF8E8D",
"r. c #D39697",
"t. c #DF9898",
"y. c #E08382",
"u. c #E68B8A",
"i. c #E88C8A",
"p. c #E69190",
"a. c #EC9E9C",
"s. c #E9A5A5",
"d. c #ECA5A4",
"f. c #E8BAB9",
"g. c #EABDBC",
"h. c #F0B8B7",
"j. c #F5D0D0",
"k. c #F9DCDB",
/* pixels */
"c c c 0 c L L L L 0 ....c L L L c c c 0 c L L L L 0 L L c L L L ",
"c ....c 0 c c L c ..L L ..c L L c L L c 0 c c L c L L L L c L L ",
"..L L ..0 ....c 0 L L L L 0 c c L L L L 0 L L c 0 L L L L 0 c c ",
"L L L L 0 L L ..0 c L L c 0 0 c L L L L 0 L L L 0 c L L c 0 0 c ",
"c L L c 0 d x x 8 8 r d 9 ....0 c L K f 8 r x x $ 8 d c 0 L L 0 ",
"0 c c 0 9 O X X . . . O H J L ..0 c c ; O . X X   . O 5 L L L L ",
"0 0 c Q D : = = = = = = i x F L 0 5 8 i , = = = = = : ; C K L L ",
"0 c Q y 1 V Y Y I I Y S p 1 z K 0 7 1 p S Y I I I I V : y C K L ",
"0 d s y g T { %.%.%.{ ( A i i q % % i A ( %.%.%.%.%.R g 1 s C c ",
"0 % # j T ( { &.$.-.%.[ / P t X X 2 P / [ %.>.,.,.,.%.R j # > 0 ",
"..; o V _ %.&.$.$.$.#.%.{ / A p p A / { %.-.,.9.i.a.e.X.m o @ L ",
"L k o V ) &.$.$.$.$.$.#.%.[ ( ^ ^ ( _ %.-.;.2.u.h.k.g.O.n o 3 L ",
"L 3 o V ) -.$.$.$.$.$.$.#.&.&.&.&.&.&.-.:.>.3.q.s.j.f.O.n o 3 L ",
"c k o V ) -.$.$.$.$.$.$.$.$.$.$.$.$.$.;.,.2.3.7.y.d.t.o.b o @ c ",
"..3 o V ) -.$.@.@.$.$.$.$.$.$.$.$.$.$.;.;.,.>.3.7.0.5.` h X 3 0 ",
"c 3 o V _ &.-.,.:.;.$.$.$.$.$.$.$.$.$.;.;.$.;.2.3.>.*.~ v X 3 L ",
"c ; o V ( { =.7.8.:.@.$.$.$.$.$.$.$.$.;.:.;.;.:.>.%.] U v X 3 L ",
"c G 3 p S W | 4.7.2.:.$.@.$.$.$.$.$.$.;.:.;.;.-.%.[ E B i * k L ",
"..F z k 1 Z ~ } 1.7.8.,.;.$.$.$.$.$.$.$.;.;.$.%.] W B 1 3 8 f c ",
"L L F k % u M E | 6.w.p.9.;.@.$.$.$.$.$.$.#.%.] E M u 3 q 9 0 c ",
"c L K c 8 * 1 B E | r.g.p.,.$.;.;.;.;.$.#.%.] E B < * e 9 K L 0 ",
"0 c c 0 9 % > w M ! +.r.w.8.,.:.:.:.:.-.%.] E M q * % 5 L L L L ",
"0 0 c ....c 8 + w Z ! | 6.7.2.>.>.>.>.%.] E B q 1 z c 0 L L L L ",
"0 c ..L L ..9 H e w M E | <.=.%.%.%.%.[ E M < e z F L c L L L L ",
"0 c L L c c 0 K l 1 u B E ' ' ' ' ' ' E B w + l K L L c c L L c ",
"0 0 c c ....c L F e > < M E ~ ~ ~ ~ E N 1 3 e F L c c 0 0 c c 0 ",
"..c 0 ..L L ..c c  .G 4 w M N N N N M i 1 k F c c L L L 0 6 0 L ",
"L ..0 L L L L 0 ..K F z a + * & & & + 3 z F K 0 L L L L L 0 L L ",
"L L c L L L L c L L L F k O - - - - O q F L c c L L L L L 0 L L ",
"L c 0 c L L c 0 c L L K f 9 d d C d 5 9 c c c 0 c L L L c 0 c L ",
"c 0 0 0 c c L L 0 c c c 0 0 0 c c 0 6 6 6 9 0 6 0 c c c 0 6 0 c ",
"0 c c 0 0 9 L L c 0 0 0 c c 0 0 0 0 c c 0 6 c c c 0 0 6 c c 0 0 "
};
