/* XPM */
static char *d9eae666ca9e4601e20ff63c02ddfff23LF9tgBnJQd4hX1V[] = {
/* columns rows colors chars-per-pixel */
"32 32 209 2 ",
"   c #1D151C",
".  c #1E1B18",
"X  c #28191B",
"o  c #3C1D1E",
"O  c #181425",
"+  c #1A1724",
"@  c #241B23",
"#  c #2C1C23",
"$  c #271D28",
"%  c #2E1F2C",
"&  c #341F23",
"*  c #381F23",
"=  c #2C222B",
"-  c #332124",
";  c #3B2424",
":  c #3D2B24",
">  c #35262A",
",  c #3B262B",
"<  c #332929",
"1  c #3F302B",
"2  c #292630",
"3  c #392E38",
"4  c #3B3339",
"5  c #4A0612",
"6  c #501F1D",
"7  c #4D221F",
"8  c #57211C",
"9  c #68281E",
"0  c #75231D",
"q  c #7B271D",
"w  c #4A2424",
"e  c #492A26",
"r  c #43262A",
"t  c #43292D",
"y  c #522521",
"u  c #592324",
"i  c #582A25",
"p  c #47342D",
"a  c #56362C",
"s  c #5C372D",
"d  c #5D392E",
"f  c #422B31",
"g  c #4D2D33",
"h  c #453336",
"j  c #49363A",
"k  c #5B3C32",
"l  c #573A3A",
"z  c #682921",
"x  c #762E23",
"c  c #653629",
"v  c #783625",
"b  c #633E33",
"n  c #6A3A34",
"m  c #7F3136",
"M  c #734F1F",
"N  c #5A402A",
"B  c #52463F",
"V  c #5C433C",
"C  c #664235",
"Z  c #6B4336",
"A  c #62473A",
"S  c #6E4538",
"D  c #724639",
"F  c #75483A",
"G  c #79543B",
"H  c #363947",
"J  c #3B3F5D",
"K  c #433643",
"L  c #443948",
"P  c #473B53",
"I  c #613F4A",
"U  c #3C4153",
"Y  c #3E496C",
"T  c #494349",
"R  c #52484B",
"E  c #474A56",
"W  c #514958",
"Q  c #4B505D",
"!  c #5B5356",
"~  c #56545D",
"^  c #69484B",
"/  c #7A5A41",
"(  c #734E54",
")  c #64695B",
"_  c #494E67",
"`  c #4B516D",
"'  c #545665",
"]  c #595B66",
"[  c #4B5576",
"{  c #565C76",
"}  c #655B63",
"|  c #785868",
" . c #705E78",
".. c #596C7B",
"X. c #686366",
"o. c #656575",
"O. c #786574",
"+. c #716A70",
"@. c #73757A",
"#. c #8E231C",
"$. c #80281E",
"%. c #97281C",
"&. c #952A1C",
"*. c #85321F",
"=. c #A8351E",
"-. c #B4371D",
";. c #892B24",
":. c #853422",
">. c #8B3624",
",. c #973921",
"<. c #9B3922",
"1. c #97352A",
"2. c #8F3431",
"3. c #A13C22",
"4. c #AC3B22",
"5. c #B73A22",
"6. c #A33B30",
"7. c #C33515",
"8. c #9D4A1C",
"9. c #B64022",
"0. c #BC4124",
"q. c #B45335",
"w. c #BC662F",
"e. c #AC7C30",
"r. c #C54323",
"t. c #CA4524",
"y. c #D04624",
"u. c #CB5334",
"i. c #893D41",
"p. c #8A464B",
"a. c #894D58",
"s. c #A25248",
"d. c #8C6546",
"f. c #8F6848",
"g. c #966C4A",
"h. c #835266",
"j. c #996465",
"k. c #83717D",
"l. c #A76866",
"z. c #AF7772",
"x. c #C7A03B",
"c. c #A88649",
"v. c #AA8B73",
"b. c #D3B87C",
"n. c #F0A977",
"m. c #EBB07D",
"M. c #C9C071",
"N. c #4F6189",
"B. c #5A6886",
"V. c #696F80",
"C. c #766C83",
"Z. c #687285",
"A. c #6C738C",
"S. c #767986",
"D. c #6B7793",
"F. c #6B7C9C",
"G. c #717A93",
"H. c #727E9C",
"J. c #927C86",
"K. c #AA7F84",
"L. c #7B8187",
"P. c #71819F",
"I. c #7B869A",
"U. c #7584A2",
"Y. c #7C8AA6",
"T. c #778AA9",
"R. c #7F91AE",
"E. c #8C8885",
"W. c #868898",
"Q. c #9B8B95",
"!. c #949696",
"~. c #97979E",
"^. c #B89D88",
"/. c #BCA081",
"(. c #8492AA",
"). c #8A98AB",
"_. c #9A9AA7",
"`. c #879AB4",
"'. c #8D9CB4",
"]. c #929CB1",
"[. c #A99EAC",
"{. c #9DA3AE",
"}. c #9BA6B7",
"|. c #B4A1A6",
" X c #A2A8BB",
".X c #ACB4BD",
"XX c #B5B5BA",
"oX c #C89794",
"OX c #E0B691",
"+X c #C3BEB0",
"@X c #D7CCBA",
"#X c #9AACC4",
"$X c #9EB3C8",
"%X c #A3ACC1",
"&X c #A9B3C6",
"*X c #ABB6C9",
"=X c #B5BECE",
"-X c #A9BBD1",
";X c #B1BDD0",
":X c #B4C2CE",
">X c #B5C2D4",
",X c #BAC4D4",
"<X c #B7C9DE",
"1X c #C4CAD5",
"2X c #C6CBD7",
"3X c #CFCBD2",
"4X c #CFD8E6",
"5X c #D7DAE3",
"6X c #DCE5EF",
/* pixels */
"g g g % g F F F F % g.g.g F F F g g g % g F F F F % F F g F F F ",
"g g.g.g % g g F g g.F F g.g C 1 = p C g % g g F g F F F F g F F ",
"g.F F g.% g.g.g % F F F C + w :.z 9 e C % D F g % F F F F % g g ",
"F F F F % F F g.% g F C w :.<.r.9.&.z r @ p k S % g F F g % % g ",
"g F F g % g F F % % f r :.r.r.t.=.;.| S.W.~.+.V + % g g % F F % ",
"% g g % % % g g % % % y 4.t.r.-.;.| ].,X,X&XI.' 2 $ % + F F F F ",
"% % g g.g.g % % g.d.r x t.r.=.x | ].,X,X*X*X%XI.] V t % F F F F ",
"% g g.F F g.% g.D b v 4.t.=.8 K H.#X&X;X}..X{.(.A.R d g F F F F ",
"% g F F g g % F S s v r.4.q . H T.(.].{.W.~.@.I.A.T s g g F F g ",
"% % g g g.g.g F D t z 4.&.6 @ H R.P.}.L.S.!.+.Z.o.3 r % + g g % ",
"g.g % g.F F g.g g / b q $.@ @ 4 o.D.).).!.^.E...L d F F % + % F ",
"F g.% F F F F % f.s y 0 c $ / j I  .U.$X+Xm./.S.R d F F F % F F ",
"F F % g F F F g C i 8 z p h X..X_.h.C.Q.OXn.v.S.! a F F F g F F ",
"g g.g.% g g g % , u q w < Q 1X4X-XG.m 1.0.u.( H > Z D F g % % g ",
"g.F F g.% % g.g.r o y - 2 (.1X*X'.F.a.i.s.K.Z.H # $ t g % F F % ",
"g F F g g g.D D f.$ + # n W.U.Y.H.P.#X-X<X>XZ.U Q ' E 2 D F F F ",
"g g g % = < < < < @ c >.j.1X}.D.B.U.'.*X1X=XG._ } O.O.] > F F F ",
"g g.A & x ,.,.,.,.3.-.q.~.`.(.C.P B.`.#X1X>XH.K o 7 c ( X.- F F ",
"g.p v 4.0.r.r.r.r.4.&.6.|.>XW.u L N.F.'.$XY.{ ` K 7 i ^ V.  g g ",
"F p v 9.y.y.5.&.&.&.#.&.s. XS.5 l ) o.C.W.A.[ Y J j i ^ V.  % g ",
"g C e <.3.*.9 0 #.#.#.&.w._.G.n c.e.>.1.6.p.W J [ { l ^ V.; F % ",
"% g , i w * ; w 8 0 #.&.q.:X$Xv.b.^.l.5.7.-.;.j _ ` l ^ Z.: F F ",
"% % g G / f $ # C c 0 #.1.z.v.M.@X5X1XoXz.j.2.u 3 3 j } ! a F F ",
"% g g.D D g.% g.Z d s 7 y i M x.l.3X4X5X1X%XJ.^ e ; L ' h S F F ",
"% g F F g g % F F S k > > : N 8.2.Q.E.XX1X5X,X[.k.W L H , F F g ",
"% % g g g.g.g F F g g % $ h J.a.O.W h ! E.XX5X6X=XV.4 = % g g % ",
"g.g % g.F F g.g g g.g.f.= ] 3X X..3 $ d V } {.,X{.} k D % + % F ",
"F g.% F F F F % g.F F b B I.>X'.T b % F S t ' A.' j b F F % F F ",
"F F g F F F F g F F S A X.Y.(.~ a D % g F e U [ [ E l S F % F F ",
"F g % g F F g % g D C X..X X{ X D g + % g - H B.H.G.~ k g % g F ",
"g % % % g g F F % g h ! @.o.E ; g % + + + @ 3 U Q ] W f % + % g ",
"% g g % % $ F F g % % @ & & @ % % % g g % + r * &   @ + g g % % "
};
