/* XPM */
static char *a8fd5cb0fc434edead4626875e7e8daaRER8j7Nim9ytdrXK[] = {
/* columns rows colors chars-per-pixel */
"32 32 219 2 ",
"   c #281A1D",
".  c #3C1D1C",
"X  c #181623",
"o  c #181425",
"O  c #251B25",
"+  c #2A1D25",
"@  c #2E1F2C",
"#  c #341F22",
"$  c #282629",
"%  c #2A242B",
"&  c #3B2325",
"*  c #382429",
"=  c #332A29",
"-  c #3E2A2E",
";  c #2D2A33",
":  c #3A2D34",
">  c #3A2C36",
",  c #322E39",
"<  c #3B3132",
"1  c #3D3A3E",
"2  c #4B0813",
"3  c #431E1D",
"4  c #48291E",
"5  c #502218",
"6  c #5A231E",
"7  c #65221D",
"8  c #76271D",
"9  c #4C2422",
"0  c #442B24",
"q  c #4C2E25",
"w  c #422628",
"e  c #43292E",
"r  c #5D2A23",
"t  c #592B28",
"y  c #4F3026",
"u  c #49322C",
"i  c #563424",
"p  c #54342B",
"a  c #5A392E",
"s  c #432B31",
"d  c #4D2D33",
"f  c #4D3837",
"g  c #523932",
"h  c #5D3A31",
"j  c #5E3B36",
"k  c #642B25",
"l  c #6B2A23",
"z  c #792C25",
"x  c #693527",
"c  c #743425",
"v  c #612D31",
"b  c #673632",
"n  c #623F33",
"m  c #763B38",
"M  c #58411E",
"N  c #55402E",
"B  c #574137",
"V  c #664135",
"C  c #6B4336",
"Z  c #6D4838",
"A  c #744133",
"S  c #7D4330",
"D  c #724639",
"F  c #75483A",
"G  c #72543D",
"H  c #353542",
"J  c #383B48",
"K  c #3D3D52",
"L  c #443546",
"P  c #593D43",
"I  c #493E56",
"U  c #733F44",
"Y  c #3A4259",
"T  c #3F4766",
"R  c #544748",
"E  c #4E4A50",
"W  c #484855",
"Q  c #574D5C",
"!  c #6A484C",
"~  c #724F4F",
"^  c #7A5343",
"/  c #695755",
"(  c #7A684F",
")  c #686458",
"_  c #464E68",
"`  c #4E5464",
"'  c #595C67",
"]  c #4F5B7B",
"[  c #555C79",
"{  c #6C5A6D",
"}  c #5A6575",
"|  c #6B6667",
" . c #756569",
".. c #6A6977",
"X. c #6A6E7C",
"o. c #75657C",
"O. c #6F767F",
"+. c #81231C",
"@. c #8D231C",
"#. c #95291C",
"$. c #8A311F",
"%. c #98311A",
"&. c #A32B1B",
"*. c #B93618",
"=. c #841F21",
"-. c #832A29",
";. c #922E24",
":. c #8D3621",
">. c #873A29",
",. c #923523",
"<. c #9E3621",
"1. c #933922",
"2. c #8A3538",
"3. c #913C34",
"4. c #A53D22",
"5. c #AA3921",
"6. c #B63A21",
"7. c #B53E25",
"8. c #AA5F1A",
"9. c #82442D",
"0. c #994329",
"q. c #895B28",
"w. c #9E463B",
"e. c #AD4E2B",
"r. c #BE4122",
"t. c #AB713A",
"y. c #C34223",
"u. c #CC4623",
"i. c #D14824",
"p. c #C85336",
"a. c #CB6330",
"s. c #DE6E39",
"d. c #8D4D4F",
"f. c #9F4C46",
"g. c #835746",
"h. c #81555D",
"j. c #AD574A",
"k. c #836144",
"l. c #8E6747",
"z. c #916847",
"x. c #966C4A",
"c. c #9A7A47",
"v. c #8A6A57",
"b. c #B46851",
"n. c #845967",
"m. c #876D65",
"M. c #8D7B6D",
"N. c #A66E64",
"B. c #A67678",
"V. c #C87E5B",
"C. c #9A8065",
"Z. c #80817E",
"A. c #B48B75",
"S. c #BD9A77",
"D. c #EB844F",
"F. c #CCB14C",
"G. c #CA8F7E",
"H. c #F59960",
"J. c #CEA27B",
"K. c #CAB574",
"L. c #EDA372",
"P. c #4F6086",
"I. c #586585",
"U. c #6A6F83",
"Y. c #776E83",
"T. c #687388",
"R. c #797685",
"E. c #687392",
"W. c #6D7C9B",
"Q. c #777C95",
"!. c #887383",
"~. c #7C8085",
"^. c #7A8497",
"/. c #73829E",
"(. c #798AA6",
"). c #7D8BA4",
"_. c #84878A",
"`. c #958486",
"'. c #858894",
"]. c #84899D",
"[. c #939096",
"{. c #93949C",
"}. c #B48E8C",
"|. c #BB9F86",
" X c #AA9A99",
".X c #8993A7",
"XX c #8593AC",
"oX c #989AA7",
"OX c #899BB4",
"+X c #8B9CB4",
"@X c #A19DAE",
"#X c #95A0B3",
"$X c #9FA7B3",
"%X c #94A2BA",
"&X c #9CA7BC",
"*X c #A2ABBD",
"=X c #B5ABB1",
"-X c #ADB4BC",
";X c #D3A485",
":X c #EBB287",
">X c #CEC5B1",
",X c #9CABC1",
"<X c #A1ACC1",
"1X c #A7B6CA",
"2X c #B5BCCD",
"3X c #A7B9D0",
"4X c #B2BDD0",
"5X c #BDC6D5",
"6X c #B7C5D8",
"7X c #CAC8CD",
"8X c #C2C9D5",
"9X c #CCC9D4",
"0X c #C3CCDA",
"qX c #CDD2DA",
"wX c #D2D5DD",
"eX c #E0D5D9",
"rX c #CAD4E3",
"tX c #D2DAE3",
"yX c #DBE2EB",
/* pixels */
"d d d @ d F F F F @ x.x.d F Z n - e s @ d F F F F @ F F d F F F ",
"d x.x.d @ d d F d x.F F l.e h y & 0 h d @ d d F d F F F F d F F ",
"x.F F x.@ x.x.d @ F F D h # r 4.$.8 q a + V C d @ F F F F @ d d ",
"F F F F @ F F x.@ d D h r 7.y.i.u.&.z e $ < f V @ d F F d @ @ d ",
"d F F d @ d F F @ @ * 9 4.u.u.y.&.-.Y.+X4X5X{.R X @ d d @ F F @ ",
"@ d d @ @ @ d d @ + 0 c 7.u.y.&.-.o.&X0X5X,XXXT.H O @ o F F F F ",
"@ @ d x.x.d @ @ z.Z x 1.u.y.%.v Y.<X8X4X1X4X4X%XT.R & @ F F F F ",
"@ d x.F F x.@ x.C i >.r.y.$.. J W.%X%X4X$X$XoX^.(.Q q d F F F F ",
"@ d F F d d @ F V i 1.y.5.8 $ J (.).#X{._.[.~.X.).W y d d F F d ",
"@ @ d d x.x.d F C 0 9.<.;.n ( E (./.#X'.R.[.Z.} X.: e @ o d d @ ",
"x.d @ x.F F x.d s N A 8 >.( S.R ' E.XXOXoX|.A.X.W p F F @ o @ F ",
"F x.@ F F F F @ k.q k z g.M.M.| / { /.,X>X:XJ._.' y F F F @ F F ",
"F F @ d F F F d a 9 7 A M.`._.-X@Xn.o.`.;XL.A.O.' q F F F d F F ",
"d x.x.@ d d d @ * 7 z ^ m.R.8XrX3XW.m ;.r.p.d.K $ C C D d @ @ d ",
"x.F F x.@ @ x.z.& 3 F v./ .X5X1XOXW.h.d.f.B.Q.Y   $ - s @ F F @ ",
"d F F d s z.D D k.= ) g.^ ].(.).W./.%X3X6X6X/.Y W ` ` ; C F F F ",
"d d d + $ = = = = - S >.B.8X%XE.I./.+X1X0X5X).` Q  . .X.= C F F ",
"d k.N & :.,.1.1.1.4.*.j.{.OXXXY.I I.XX,X8X5XXXW . 9 k ! X.: C F ",
"k.p :.5.y.y.y.y.7.5.#.f.=X3XQ.t L P.W.+X1XOXI._ W 3 r t ].$ e d ",
"V p ,.u.i.u.6.&.%.#.@.,.N.*XY.2 P ) ..R.].Q.] _ T L t r ].$ + d ",
"s h r r.<.:.8 +.@.@.@.%.t.oXT.b c.t.>.3.w.d.Q Y T [ P 6 ].< n @ ",
"@ s & z 9 & w 6 7 +.@.%.b.-X%XC.K.S.j.7.*.6.>.d T P.R 6 ].< n F ",
"@ @ e Z ^ - O + a l +.#.w.}. XK.>X9X-X}.b.j.3.k : K s ! ..f C F ",
"@ d x.C F x.@ l.n q x l l c q.F.}.eXtXwX2X#X!.U 9 & & U.1 n D F ",
"@ d F F d d @ F D p / R u 4 M 8.=. X=X7XwXrX6X[.n.L < ` = C F d ",
"@ @ d d x.x.d F D e ~ ^ >.m h.2.n.{ j  . X7XyXyX5X^.K $ + d d @ ",
"x.d @ x.F F x.d d l.G i l / 7XoXE.m :.5 s ..-XyXqX'.: C @ o @ F ",
"F x.@ F F F F @ x.F D 4 B .XrX3X` 0.0.c p e W ^.X.f C F F @ F F ",
"F F d F F F F d F F C 0 R W.%XX.9.s.e.x a p H ] T H u D F @ F F ",
"F d @ d F F d @ d Z g  .-X,XU.g V.D.a.l & & H I.W.W.' g s @ d F ",
"d @ @ @ d d F F @ e < | {.'.| Z G.H.s.>.  O , _ } U.} : @ o @ d ",
"@ d d @ @ + F F d @ + h g.v.m.g.A.:XD.0.. X s : : , , X s d @ @ "
};
