/* XPM */
static char *e172d466d91a4596ba39feba2a1b247cjsS97g3Lmh6lWxEX[] = {
/* columns rows colors chars-per-pixel */
"32 32 6 1 ",
"  c #646463",
". c gray54",
"X c gray43",
"o c #5A5A59",
"O c #676767",
"+ c white",
/* pixels */
" ....XX. ..XXX.. ......X .....X.",
"oXXXXXXXoXXXXXXXoXXXXXXXoXXXXXXX",
"oXXXXXXXoXXXXXXXoXXXXXXXoXXXXXXX",
"oOOOOOOOoOOOOOOOoOOOOOOOoOOOOOOO",
"oooooooooooooooooooooooooooooooo",
".....o.....o.......o....o......o",
"XXXXXoXXXXXoXoXXXXXoXXXXoXXXXXXo",
"XXXXXoXXXXXoXXoXXXXoXXXXoXXXXXXo",
"OOOOOoOOOOOoOOOoOOOoOOOOoOOOOOOo",
"oooooooooooooooooooooooooooooooo",
"..o......o......o....o......o...",
"oXoXXXXXXoXXXXXXoXXXXoXXXXXXoXXX",
"XXoXXXXXXoXXXXXXoXXXXoXXXXXXoXXX",
"OOoOOOOOOoOOOOOOoOOOOoOOOOOOoOOO",
"oooooooooooooooooooooooooooooooo",
"......oo.....o....o.....o......o",
"XXXXXXoXXXXXXoXXXXoXXXXXoXXXXXXo",
"XXXXXXoXXXXoooXXXXoXXXXXoXXXXXXo",
"OOOOOOoOOOooOoOOOOoOOOOOoOOOOOOo",
"oooooooooooooooooooooooooooooooo",
"..o.......o.....o....o.....o....",
"XXoXXXXXXXoXXXXXoXXXXoXXXXXoXXXX",
"oooXoXooXXoXXXXXoXXXXoXXXXXoXXXX",
"OOoOOOooOOoOOOOOoOOOOoOOOOOoOOOO",
"oooooooooooooooooooooooooooooooo",
"......o......o..oooo....o......o",
"XXXXXXoXXXXXXoXXXXooXXXXoXXXXXXo",
"XXXXXXoXXXXXXoXXXXXoXXXooXXXXXXo",
"OOOOOOoOOOOOOoooOOOoOOoOoOOOOOOo",
"oooooooooooooooooooooooooooooooo",
"................................",
"................................"
};
